<svg xmlns="http://www.w3.org/2000/svg" viewBox="0 0 100 28"><path d="M54.2 18.2c0 .7-.2 1.3-.8 1.9-.6.5-1.7.9-3.4.9h-3.5v-5.5h3.3c1.6 0 2.7.3 3.3.8.8.4 1.1 1.1 1.1 1.9m-2.9-6.6c.7-.5 1-1.1 1-2.1 0-.7-.2-1.2-.7-1.7-.5-.4-1.3-.7-2.7-.7h-2.5v5.2h1.7c1.5 0 2.6-.3 3.2-.7M65.1 28H34.9V0h30.3v28zm-7.2-9.4c0-2.5-1.7-4.5-4.5-5.2.8-.4 1.3-.8 1.8-1.4.6-.8.9-1.7.9-2.7 0-1.3-.5-2.6-1.6-3.7-1.1-1-2.8-1.6-5.2-1.6h-6.5v20.2h7.6c2.7 0 4.6-.7 5.8-1.8 1.2-1.2 1.7-2.6 1.7-3.8m-41.4-7c.6-.5 1-1.1 1-2.1 0-.7-.2-1.2-.7-1.7-.5-.4-1.3-.7-2.7-.7h-2.5v5.2h1.7c1.5 0 2.5-.3 3.2-.7m1.8 4.6c-.7-.5-1.8-.8-3.3-.8h-3.3v5.5h3.5c1.7 0 2.8-.4 3.4-.9.6-.5.8-1.2.8-1.9-.1-.7-.4-1.4-1.1-1.9m12 11.8H0V0h30.3v28zm-7.2-9.4c0-2.5-1.7-4.5-4.5-5.2.7-.4 1.3-.8 1.8-1.4.6-.8.9-1.7.9-2.7 0-1.3-.5-2.6-1.6-3.7-1.1-1-2.8-1.6-5.2-1.6H7.9v20.2h7.6c2.7 0 4.6-.7 5.8-1.8 1.2-1.2 1.8-2.6 1.8-3.8M100 28H69.7V0H100v28zm-6-9.3l-.5.3c-2.3 1.4-4.9 2.2-7.2 2.2-5 0-8.2-2.9-8.2-7.1 0-4.1 3.4-7.2 8.1-7.2 2.4 0 4.6.6 7.1 2l.5.3V5.4l-.2-.1c-2.9-1.1-5.1-1.6-7.4-1.6-3.4 0-6.4 1.1-8.5 3-2.1 1.9-3.4 4.6-3.4 7.6 0 2.1.9 4.6 2.8 6.6s4.9 3.4 8.9 3.4c3.4 0 5.7-.7 7.8-1.8l.2-.1v-3.7z" fill="#FFF"/></svg>